# xmcd CD database file
#
# Track frame offsets:
#	150
#	17987
#	35785
#	56167
#	73573
#	90752
#	109453
#	126994
#	144055
#	161189
#	175535
#	190304
#	209265
#	223769
#	240836
#	255991
#	266687
#	282647
#	298439
#	310594
#
# Disc length: 4363 seconds
#
# Revision: 2
# Processed by: cddbd v1.5.2PL0 Copyright (c) Steve Scherf et al.
# Submitted via: CDex 1.51
#
DISCID=31110914
DTITLE=Matogrosso and Mathias - As 20 Melhores
DYEAR=2010
DGENRE=Country
TTITLE0=01 TENTEI TE ESQUECER
TTITLE1=02 DE IGUAL PRA IGUAL
TTITLE2=03 FRENTE A FRENTE
TTITLE3=04 NA HORA DO ADEUS
TTITLE4=05 FOI PENSANDO EM VOCÊ
TTITLE5=06 TRIBUTO A UM CAMINHONEIRO
TTITLE6=07 AMANHÃ
TTITLE7=08 QUANDO O AMOR SE TRANSFORMA EM POESIA
TTITLE8=09 SORTE TEM QUEM ACREDITA NELA
TTITLE9=10 OBJETO DE PRAZER
TTITLE10=11 PARE O CARRO
TTITLE11=12 SABADO
TTITLE12=13 IDAS E VOLTAS
TTITLE13=14 24 HORAS DE AMOR
TTITLE14=15 PONTO DE CHEGADA
TTITLE15=16 EXPRESSO BOIADEIRO
TTITLE16=17 BOBAGENS
TTITLE17=18 MULHER
TTITLE18=19 PEDAÇO DE MINHA VIDA
TTITLE19=20 VOLTE AMOR
EXTD=YEAR: 2010
EXTT0=
EXTT1=
EXTT2=
EXTT3=
EXTT4=
EXTT5=
EXTT6=
EXTT7=
EXTT8=
EXTT9=
EXTT10=
EXTT11=
EXTT12=
EXTT13=
EXTT14=
EXTT15=
EXTT16=
EXTT17=
EXTT18=
EXTT19=
PLAYORDER=
